<svg width="24" height="24" viewBox="0 0 24 24" fill="none" xmlns="http://www.w3.org/2000/svg">
<path d="M21.1875 3.5625H2.8125C2.06658 3.5625 1.35121 3.85882 0.823762 4.38626C0.296316 4.91371 0 5.62908 0 6.375V17.625C0 18.3709 0.296316 19.0863 0.823762 19.6137C1.35121 20.1412 2.06658 20.4375 2.8125 20.4375H21.1875C21.9334 20.4375 22.6488 20.1412 23.1762 19.6137C23.7037 19.0863 24 18.3709 24 17.625V6.375C24 5.62908 23.7037 4.91371 23.1762 4.38626C22.6488 3.85882 21.9334 3.5625 21.1875 3.5625ZM22.875 17.625C22.875 18.0726 22.6972 18.5018 22.3807 18.8182C22.0643 19.1347 21.6351 19.3125 21.1875 19.3125H2.8125C2.36495 19.3125 1.93572 19.1347 1.61926 18.8182C1.30279 18.5018 1.125 18.0726 1.125 17.625V6.375C1.125 5.92745 1.30279 5.49823 1.61926 5.18176C1.93572 4.86529 2.36495 4.6875 2.8125 4.6875H21.1875C21.6351 4.6875 22.0643 4.86529 22.3807 5.18176C22.6972 5.49823 22.875 5.92745 22.875 6.375V17.625Z" fill="#232451"/>
<path fill-rule="evenodd" clip-rule="evenodd" d="M22.875 17.625C22.875 18.0726 22.6972 18.5018 22.3807 18.8182C22.0643 19.1347 21.6351 19.3125 21.1875 19.3125H2.8125C2.36495 19.3125 1.93572 19.1347 1.61926 18.8182C1.30279 18.5018 1.125 18.0726 1.125 17.625V6.375C1.125 5.92745 1.30279 5.49823 1.61926 5.18176C1.93572 4.86529 2.36495 4.6875 2.8125 4.6875H21.1875C21.6351 4.6875 22.0643 4.86529 22.3807 5.18176C22.6972 5.49823 22.875 5.92745 22.875 6.375V17.625ZM21.7242 5.8212C21.7877 5.85901 21.8431 5.90896 21.8873 5.9682C21.9749 6.0874 22.012 6.23627 21.9906 6.38261C21.9691 6.52894 21.891 6.66096 21.773 6.75008L14.6573 12.0657L21.6436 17.2857C21.7028 17.3299 21.7527 17.3853 21.7905 17.4488C21.8283 17.5123 21.8532 17.5826 21.8639 17.6558C21.8745 17.7289 21.8706 17.8034 21.8524 17.875C21.8343 17.9466 21.8022 18.014 21.758 18.0732C21.7138 18.1324 21.6583 18.1823 21.5948 18.2201C21.5313 18.2579 21.461 18.2829 21.3879 18.2935C21.3148 18.3041 21.2403 18.3002 21.1686 18.282C21.097 18.2639 21.0297 18.2318 20.9705 18.1876L13.718 12.7763L12.698 13.5376C12.469 13.7077 12.1909 13.7986 11.9058 13.7966C11.6206 13.7945 11.3438 13.6997 11.1173 13.5263L10.1461 12.7763L2.97795 18.1876C2.91836 18.232 2.8506 18.2643 2.77854 18.2825C2.70649 18.3008 2.63153 18.3047 2.55797 18.294C2.48441 18.2833 2.41368 18.2582 2.34982 18.2201C2.28595 18.1821 2.23021 18.1318 2.18576 18.0723C2.14132 18.0127 2.10905 17.9449 2.09079 17.8729C2.07253 17.8008 2.06864 17.7258 2.07935 17.6523C2.09006 17.5787 2.11515 17.508 2.15319 17.4441C2.19124 17.3803 2.24149 17.3245 2.30107 17.2801L9.21795 12.0676L2.2242 6.7182C2.16547 6.67339 2.11615 6.61745 2.07904 6.55357C2.04194 6.4897 2.01778 6.41914 2.00794 6.34592C1.9981 6.27271 2.00278 6.19828 2.02171 6.12687C2.04064 6.05547 2.07345 5.98849 2.11826 5.92977C2.16308 5.87104 2.21902 5.82172 2.28289 5.78461C2.34677 5.7475 2.41733 5.72334 2.49054 5.71351C2.56375 5.70367 2.63819 5.70835 2.70959 5.72728C2.781 5.74621 2.84797 5.77901 2.9067 5.82383L11.8017 12.6263C11.8342 12.6507 11.8736 12.6638 11.9142 12.6638C11.9548 12.6638 11.9942 12.6507 12.0267 12.6263L21.0998 5.85383C21.159 5.80961 21.2264 5.77748 21.298 5.7593C21.3696 5.74111 21.4441 5.73722 21.5173 5.74784C21.5904 5.75846 21.6607 5.78339 21.7242 5.8212Z" fill="#232451"/>
</svg>
