<svg width="90" height="40" viewBox="0 0 90 40" fill="none" xmlns="http://www.w3.org/2000/svg">
<g clip-path="url(#clip0_132_1385)">
<path d="M79.9301 0H10.0699C4.50846 0 0 4.47715 0 10V30C0 35.5228 4.50846 40 10.0699 40H79.9301C85.4915 40 90 35.5228 90 30V10C90 4.47715 85.4915 0 79.9301 0Z" fill="#262626"/>
<path fill-rule="evenodd" clip-rule="evenodd" d="M22.0424 10C21.9933 13.9279 21.7235 16.1356 20.2413 17.6087C18.7591 19.082 16.5379 19.3501 12.5859 19.3989V19.9796C16.5379 20.0284 18.7591 20.2966 20.2413 21.7698C21.7235 23.2429 21.9933 25.4506 22.0424 29.3785H22.6267C22.6758 25.4506 22.9455 23.2429 24.4277 21.7698C25.91 20.2966 28.1311 20.0284 32.0831 19.9796V19.3989C28.1311 19.3501 25.91 19.082 24.4277 17.6087C22.9455 16.1356 22.6758 13.9279 22.6267 10H22.0424Z" fill="white"/>
<path d="M38.8008 30.0002V26.9561H46.6582V30.0002H49.045V24.9827H47.6721V12.3657H38.6952L38.4418 19.6084C38.3573 21.9597 38.1038 23.8701 37.4279 24.9827H36.4141V30.0002H38.8008ZM40.6807 19.9443L40.8708 14.3391H45.1163V24.9827H39.8358C40.2793 23.996 40.5962 22.2956 40.6807 19.9443Z" fill="white"/>
<path d="M53.3332 25.1927C52.0447 25.1927 50.7774 24.7308 50.1016 24.227V26.2634C50.5874 26.6623 51.8124 27.1661 53.6289 27.1661C56.3114 27.1661 57.7266 25.9695 57.7266 23.8491C57.7266 22.6105 56.9451 21.7708 55.551 21.4769C56.8606 21.057 57.4098 20.1333 57.4098 18.9576C57.4098 17.1732 55.9945 16.1865 53.7134 16.1865C52.0659 16.1865 50.9887 16.6904 50.3762 17.0683V19.1046C51.052 18.6638 51.9814 18.1599 53.3543 18.1599C54.2837 18.1599 54.8751 18.6008 54.8751 19.3775C54.8751 20.1963 54.3682 20.6371 53.3332 20.6371H51.7491V22.5265H53.3332C54.6216 22.5265 55.1286 22.9045 55.1286 23.8281C55.1286 24.6679 54.516 25.1927 53.3332 25.1927Z" fill="white"/>
<path d="M67.238 26.2424V24.206C66.4563 24.7308 65.1466 25.1927 63.9219 25.1927C62.0842 25.1927 61.3872 24.332 61.2816 22.5685H67.3437V21.246C67.3437 17.5721 65.7174 16.1865 63.2037 16.1865C60.141 16.1865 58.6836 18.5168 58.6836 21.7078C58.6836 25.3816 60.5001 27.1661 63.7104 27.1661C65.3159 27.1661 66.4985 26.7462 67.238 26.2424ZM63.1616 18.1599C64.4077 18.1599 64.7879 19.1886 64.7879 20.5112V20.7211H61.2816C61.345 19.0416 61.9575 18.1599 63.1616 18.1599Z" fill="white"/>
<path d="M74.8994 16.3965V20.5742H71.541V16.3965H69.0273V26.9562H71.541V22.5475H74.8994V26.9562H77.4131V16.3965H74.8994Z" fill="white"/>
</g>
<defs>
<clipPath id="clip0_132_1385">
<rect width="90" height="40" fill="white"/>
</clipPath>
</defs>
</svg>
