<svg width="1231" height="480" viewBox="0 0 1231 480" fill="none" xmlns="http://www.w3.org/2000/svg">
<rect width="1230.44" height="480" fill="url(#paint0_linear_1120_643)"/>
<path d="M77.3406 152.786V161.181H30.8758V154.503L60.0301 125.058H31.4831V116.663H76.2017V123.34L47.1233 152.786H77.3406Z" fill="white"/>
<path d="M65.6968 201.672H41.0218L36.3146 211.211H23.7114L47.3994 166.693H59.547L83.3109 211.211H70.404L65.6968 201.672ZM61.8247 193.849L53.3973 176.805L44.9698 193.849H61.8247Z" fill="white"/>
<path d="M65.7072 261.666L55.4576 249.264H44.1451V261.666H31.8456V217.147H54.8502C59.5574 217.147 63.6319 217.804 67.0738 219.119C70.5662 220.433 73.2488 222.299 75.1216 224.715C76.9944 227.132 77.9307 229.994 77.9307 233.301C77.9307 236.608 76.9691 239.47 75.0457 241.887C73.1729 244.261 70.4903 246.084 66.9979 247.356L78.9177 261.666H65.7072ZM65.4794 233.301C65.4794 230.8 64.5177 228.892 62.5943 227.577C60.6709 226.22 57.8618 225.542 54.1669 225.542H44.1451V241.06H54.1669C57.8618 241.06 60.6709 240.382 62.5943 239.025C64.5177 237.668 65.4794 235.76 65.4794 233.301Z" fill="white"/>
<path d="M69.7578 288.97C72.7947 289.776 75.1736 291.133 76.8945 293.041C78.6154 294.906 79.4759 297.217 79.4759 299.973C79.4759 303.873 77.6537 306.884 74.0095 309.004C70.4158 311.081 65.1518 312.12 58.2175 312.12H30.7334V267.601H56.699C63.1778 267.601 68.1381 268.64 71.5799 270.718C75.0724 272.795 76.8186 275.615 76.8186 279.176C76.8186 281.339 76.1859 283.268 74.9205 284.964C73.7058 286.66 71.9848 287.995 69.7578 288.97ZM42.957 275.36V285.854H55.1806C58.2175 285.854 60.5205 285.409 62.0896 284.518C63.6586 283.628 64.4432 282.314 64.4432 280.575C64.4432 278.837 63.6586 277.544 62.0896 276.696C60.5205 275.806 58.2175 275.36 55.1806 275.36H42.957ZM57.3064 304.361C60.5458 304.361 62.9753 303.916 64.595 303.025C66.2653 302.135 67.1005 300.757 67.1005 298.892C67.1005 295.203 63.8358 293.359 57.3064 293.359H42.957V304.361H57.3064Z" fill="white"/>
<path d="M53.4685 363.337C47.9514 363.337 42.9658 362.341 38.5116 360.348C34.1081 358.356 30.641 355.621 28.1102 352.144C25.6301 348.625 24.39 344.682 24.39 340.315C24.39 335.948 25.6301 332.026 28.1102 328.549C30.641 325.03 34.1081 322.274 38.5116 320.282C42.9658 318.289 47.9514 317.293 53.4685 317.293C58.9855 317.293 63.9458 318.289 68.3493 320.282C72.7529 322.274 76.22 325.03 78.7508 328.549C81.2815 332.026 82.5469 335.948 82.5469 340.315C82.5469 344.682 81.2815 348.625 78.7508 352.144C76.22 355.621 72.7529 358.356 68.3493 360.348C63.9458 362.341 58.9855 363.337 53.4685 363.337ZM53.4685 354.561C56.6066 354.561 59.4411 353.967 61.9718 352.78C64.5026 351.551 66.4766 349.855 67.8938 347.692C69.3616 345.53 70.0956 343.071 70.0956 340.315C70.0956 337.559 69.3616 335.1 67.8938 332.938C66.4766 330.775 64.5026 329.101 61.9718 327.913C59.4411 326.684 56.6066 326.069 53.4685 326.069C50.3303 326.069 47.4959 326.684 44.9651 327.913C42.4343 329.101 40.435 330.775 38.9672 332.938C37.55 335.1 36.8413 337.559 36.8413 340.315C36.8413 343.071 37.55 345.53 38.9672 347.692C40.435 349.855 42.4343 351.551 44.9651 352.78C47.4959 353.967 50.3303 354.561 53.4685 354.561Z" fill="white"/>
<rect x="53.8535" width="2.05515" height="102.152" fill="white"/>
<rect x="53.8535" y="377.848" width="2.05515" height="102.152" fill="white"/>
<defs>
<linearGradient id="paint0_linear_1120_643" x1="615.22" y1="0" x2="615.22" y2="480" gradientUnits="userSpaceOnUse">
<stop stop-color="#F8F6FA"/>
<stop offset="0.546875" stop-color="#F8F6FA"/>
<stop offset="1" stop-color="#F8F6FA" stop-opacity="0"/>
</linearGradient>
</defs>
</svg>
