<svg width="414" height="89" viewBox="0 0 414 89" fill="none" xmlns="http://www.w3.org/2000/svg">
<path d="M413.355 44.4692C413.355 48.521 412.816 52.4337 411.738 56.2073C410.7 59.9413 409.223 63.4568 407.308 66.7538C405.392 70.0111 403.077 72.9903 400.362 75.6914C397.648 78.3926 394.655 80.7164 391.382 82.6628C388.108 84.5695 384.576 86.0393 380.784 87.0721C376.992 88.1446 373.061 88.6808 368.989 88.6808C364.918 88.6808 360.986 88.1446 357.194 87.0721C353.442 86.0393 349.91 84.5695 346.597 82.6628C343.324 80.7164 340.33 78.3926 337.616 75.6914C334.902 72.9903 332.567 70.0111 330.611 66.7538C328.695 63.4568 327.198 59.9413 326.121 56.2073C325.083 52.4337 324.564 48.521 324.564 44.4692C324.564 40.4175 325.083 36.5048 326.121 32.7311C327.198 28.9574 328.695 25.4419 330.611 22.1847C332.567 18.9274 334.902 15.9482 337.616 13.247C340.33 10.5458 343.324 8.24191 346.597 6.33521C349.91 4.4285 353.442 2.95876 357.194 1.92596C360.986 0.853441 364.918 0.317181 368.989 0.317181C373.061 0.317181 376.992 0.853441 380.784 1.92596C384.576 2.95876 388.108 4.4285 391.382 6.33521C394.655 8.24191 397.648 10.5458 400.362 13.247C403.077 15.9482 405.392 18.9274 407.308 22.1847C409.223 25.4419 410.7 28.9574 411.738 32.7311C412.816 36.5048 413.355 40.4175 413.355 44.4692ZM396.291 44.4692C396.291 40.7353 395.573 37.2198 394.136 33.9228C392.699 30.5861 390.743 27.7061 388.268 25.283C385.833 22.8202 382.94 20.8738 379.587 19.4438C376.274 18.0137 372.741 17.2987 368.989 17.2987C365.197 17.2987 361.645 18.0137 358.332 19.4438C355.019 20.8738 352.125 22.8202 349.651 25.283C347.176 27.7061 345.22 30.5861 343.783 33.9228C342.346 37.2198 341.628 40.7353 341.628 44.4692C341.628 48.2032 342.346 51.7187 343.783 55.0157C345.22 58.2729 347.176 61.133 349.651 63.5958C352.125 66.0586 355.019 68.0051 358.332 69.4351C361.645 70.8651 365.197 71.5801 368.989 71.5801C372.741 71.5801 376.274 70.8651 379.587 69.4351C382.94 68.0051 385.833 66.0586 388.268 63.5958C390.743 61.133 392.699 58.2729 394.136 55.0157C395.573 51.7187 396.291 48.2032 396.291 44.4692Z" fill="#1D1C1E"/>
<path d="M68.8198 88.4725H0.164551L38.0177 17.7939H0.164551V0.108887H68.8198L31.0903 70.7875H68.8198V88.4725Z" fill="#1D1C1E"/>
<path d="M316.918 61.9758C316.918 65.6319 316.217 69.0621 314.816 72.2664C313.414 75.4706 311.496 78.2846 309.063 80.7084C306.672 83.091 303.868 84.9807 300.652 86.3774C297.435 87.7742 293.992 88.4725 290.322 88.4725H245.975V0.108887H290.322C293.992 0.108887 297.435 0.807251 300.652 2.20398C303.868 3.60071 306.672 5.51094 309.063 7.93468C311.496 10.3173 313.414 13.1108 314.816 16.3151C316.217 19.5193 316.918 22.9495 316.918 26.6057C316.918 28.2489 316.692 29.9332 316.238 31.6585C315.785 33.3839 315.145 35.0477 314.321 36.6498C313.496 38.2519 312.506 39.7103 311.352 41.0248C310.197 42.3394 308.919 43.428 307.517 44.2907C308.96 45.0712 310.259 46.1393 311.414 47.495C312.568 48.8095 313.558 50.2679 314.383 51.87C315.207 53.4722 315.826 55.1564 316.238 56.9229C316.692 58.6483 316.918 60.3326 316.918 61.9758ZM263.726 70.7875H290.322C291.559 70.7875 292.714 70.5615 293.786 70.1097C294.858 69.6578 295.786 69.0416 296.569 68.2611C297.394 67.4395 298.033 66.4946 298.487 65.4265C298.94 64.3584 299.167 63.2082 299.167 61.9758C299.167 60.7434 298.94 59.5931 298.487 58.525C298.033 57.4569 297.394 56.5326 296.569 55.7521C295.786 54.9305 294.858 54.2938 293.786 53.8419C292.714 53.39 291.559 53.1641 290.322 53.1641H263.726V70.7875ZM263.726 35.479H290.322C291.559 35.479 292.714 35.2531 293.786 34.8012C294.858 34.3493 295.786 33.7331 296.569 32.9526C297.394 32.131 298.033 31.1861 298.487 30.118C298.94 29.0089 299.167 27.8381 299.167 26.6057C299.167 25.3733 298.94 24.223 298.487 23.1549C298.033 22.0868 297.394 21.1625 296.569 20.382C295.786 19.5604 294.858 18.9237 293.786 18.4718C292.714 18.0199 291.559 17.7939 290.322 17.7939H263.726V35.479Z" fill="#1D1C1E"/>
<path d="M114.758 17.7939C112.326 17.7939 110.016 18.2664 107.831 19.2112C105.687 20.115 103.811 21.3679 102.203 22.9701C100.594 24.5722 99.3161 26.4619 98.3677 28.6391C97.4606 30.7753 97.007 33.0553 97.007 35.479V53.1641H134.031L151.782 53.1332V88.4725H134.031V70.7875H97.007V88.4725H79.3175V35.479C79.3175 30.5904 80.2452 26.01 82.1008 21.7376C83.9563 17.4242 86.4716 13.6654 89.6467 10.4611C92.863 7.25685 96.6153 4.73042 100.904 2.8818C105.233 1.03319 109.852 0.108887 114.758 0.108887H201.165C204.423 0.108887 207.556 0.540229 210.566 1.40291C213.577 2.22452 216.381 3.41585 218.978 4.9769C221.617 6.49687 224.009 8.34548 226.153 10.5227C228.339 12.6589 230.194 15.0416 231.72 17.6707C233.287 20.2998 234.482 23.1138 235.307 26.1127C236.173 29.1116 236.606 32.2337 236.606 35.479C236.606 38.5189 236.214 41.4767 235.431 44.3523C234.689 47.228 233.596 49.9598 232.153 52.5478C230.751 55.1359 229.019 57.5186 226.957 59.6958C224.895 61.8731 222.586 63.7628 220.03 65.3649L229.864 88.4725H210.999L203.268 70.6642L181.033 70.7875V88.4725H163.282V53.1332L181.033 53.1641H201.165C203.598 53.1641 205.886 52.7122 208.031 51.8084C210.175 50.8636 212.051 49.5901 213.659 47.9879C215.267 46.3858 216.525 44.5167 217.432 42.3805C218.38 40.2032 218.855 37.9027 218.855 35.479C218.855 33.0553 218.38 30.7753 217.432 28.6391C216.525 26.4619 215.267 24.5722 213.659 22.9701C212.051 21.3679 210.175 20.115 208.031 19.2112C205.886 18.2664 203.598 17.7939 201.165 17.7939H114.758Z" fill="#1D1C1E"/>
<path d="M107.189 35.4907C107.189 30.972 110.87 27.3088 115.41 27.3088H200.912C205.453 27.3088 209.134 30.972 209.134 35.4907C209.134 40.0093 205.453 43.6725 200.912 43.6725H107.189V35.4907Z" fill="url(#paint0_linear_302_23)"/>
<defs>
<linearGradient id="paint0_linear_302_23" x1="209.134" y1="27.5681" x2="121.886" y2="72.383" gradientUnits="userSpaceOnUse">
<stop stop-color="#E94309"/>
<stop offset="0.480328" stop-color="#E92A6E"/>
<stop offset="1" stop-color="#A204E8"/>
</linearGradient>
</defs>
</svg>
